<?xml version="1.0" encoding="utf-8"?><!-- Uploaded to: SVG Repo, www.svgrepo.com, Generator: SVG Repo Mixer Tools -->
<svg fill="#000000" width="800px" height="800px" viewBox="0 0 24 24" id="leaderboard-podium" data-name="Flat Color" xmlns="http://www.w3.org/2000/svg" class="icon flat-color"><path id="primary" d="M21,13H16V10a1,1,0,0,0-1-1H9a1,1,0,0,0-1,1v5H3a1,1,0,0,0-1,1v5a1,1,0,0,0,1,1H21a1,1,0,0,0,1-1V14A1,1,0,0,0,21,13Z" style="fill: rgb(0, 0, 0);"></path><path id="secondary" d="M12.93,6.85a1,1,0,0,1-.47-.11L12,6.5l-.46.24a1,1,0,0,1-1.45-1.06l.09-.51L9.8,4.81a1,1,0,0,1,.56-1.71L10.87,3l.23-.47a1,1,0,0,1,1.8,0l.23.47.51.07a1,1,0,0,1,.56,1.71l-.38.36.09.51a1,1,0,0,1-.39,1A1,1,0,0,1,12.93,6.85Z" style="fill: rgb(44, 169, 188);"></path></svg>